<?xml version="1.0" encoding="UTF-8"?>
<svg id="Layer_1" data-name="Layer 1" xmlns="http://www.w3.org/2000/svg" viewBox="0 0 500 160">
  <defs>
    <style>
      .cls-1 {
        fill: #ede9e2;
      }
    </style>
  </defs>
  <path class="cls-1" d="M362.51,44.15c1.51,.69,2.59,1.18,3.65,1.67-.86,2.01-4.68,4.67-6.63,4.32-.77-.14-1.65-.91-2.01-1.63-.2-.38,.42-1.49,.96-1.89,1.38-1.01,2.92-1.81,4.03-2.47Z"/>
  <path class="cls-1" d="M456.38,101.45c-3.71,4.64-7.92,2.9-11.8,.01-5.22-3.87-5.76-9.54-5.88-15.37-.02-.78-.03-1.61-.31-2.31-.24-.59-.82-1.39-1.31-1.44-.54-.05-1.33,.53-1.7,1.06-.8,1.16-1.41,2.47-2.17,3.84-.44-.35-.75-.54-.99-.79-4.15-4.3-10.27-5.57-15.51-2.95-5.39,2.7-9.19,7.66-11.83,12.4-.55,1-1.6,3.03-2.05,4.08-1.24,2.94,.86,1.47-4.48,2.78-6.53,1.6-12.58,4.08-19.54,4.98-4.79,1.06-9.64,.63-14.73-.86,3.23-1.41,6.29-2.31,8.87-3.96,8.21-5.27,13.06-13.14,16.15-22.18,.35-1.02-.18-2.35-.31-3.53-.25-.04-.5-.08-.76-.12-1.54,1.27-2.98,2.7-4.64,3.79-9.42,6.22-18.77,12.57-28.4,18.46-5.66,3.45-11.76,6.2-17.75,9.1-2.7,1.31-6.7,.31-7.02-1.73-.35-2.27-.39-4.78,.22-6.97,1.47-5.26,5.56-8.52,9.64-11.85,2.76-2.25,5.04-5.12,7.29-7.91,.51-.64,.04-2.11-.11-3.18-.01-.08-1.21-.26-1.58,0-4.16,2.99-8.25,6.08-12.39,9.1-4.91,3.58-9.75,7.26-14.8,10.61-4.7,3.11-9.54,6.05-14.52,8.68-2.87,1.51-6.1,2.49-9.27,3.27-2.37,.58-3.65-.79-3.6-3.24,.03-1.07,.19-2.17,.51-3.2,1.87-6.15,6.17-10.74,10.22-15.43,2.82-3.26,6.07-6.15,9.13-9.19,.96-.96,1.66-2.14,.58-3.17-.37-.35-1.99,.19-2.74,.73-5.7,4.08-11.2,8.45-17.01,12.37-7.37,4.98-14.88,9.79-22.52,14.35-3.05,1.82-6.53,3.22-10.32,2.6-1.98-.32-2.66-1.45-1.82-3.26,1.21-2.61,2.43-5.29,4.09-7.62,3.49-4.87,7.23-9.58,10.99-14.25,1.01-1.26,.87-2.42,.17-3.5-.12-.19-2,.32-2.62,.95-2.63,2.65-5,5.56-7.64,8.19-1.47,1.47-3.3,2.58-4.96,3.87-4.28,3.32-8.42,6.86-12.89,9.91-4.04,2.77-8.35,5.21-12.72,7.43-2.86,1.46-5.97,2.55-9.09,3.32-3.54,.88-5.01-.51-4.98-4.18,.04-4.62,2.59-8.1,5.1-11.72,2.46-3.54,4.42-7.44,6.36-11.3,.41-.81-.18-2.12-.31-3.19-1,.66-2.25,1.12-2.94,2.02-.86,1.11-1.22,2.6-1.86,3.89-.37,.76-.76,1.55-1.31,2.19-4.53,5.2-9.5,9.84-15.65,13.18-5.68,3.08-11.26,6.38-17.77,7.28-3.05,.42-6.19,.61-9.25,.36-3.65-.3-5.54-2.37-5.88-5.53-.29-2.7,.67-6.09,4.56-7.47,6.33-2.26,12.49-5.06,18.9-7.01,6.71-2.05,13.49-5.96,20.72-1.07,.68,.46,2.95-.14,3.37-.88,.75-1.33,0-2.81-1.69-3.36-1.91-.63-3.81-1.59-5.77-1.74-4.12-.32-8.26-.22-12.4-.27-11.59-.15-21.33,3.46-27.92,13.6-.37,.57-1.05,1.03-1.69,1.31-8.15,3.58-16.25,7.3-24.51,10.6-3.92,1.57-8.12,2.59-12.29,3.35-4.04,.74-6.35-1.97-4.95-5.44,.96-2.39,1.89-4.95,3.49-6.89,4.35-5.3,8.88-10.48,13.65-15.39,2.74-2.82,5.91-5.36,9.25-7.45,4.05-2.53,7.39-5.57,9.48-9.84,.44-.9,.46-2.41-.02-3.22-.33-.56-2.02-.78-2.86-.48-6.1,2.22-12.41,4.08-18.12,7.08-7.34,3.86-14.23,8.59-21.21,13.11-5.83,3.77-11.47,7.84-17.27,11.65-1.38,.91-3.08,1.34-4.66,2.01-.15-.53-.25-.67-.22-.79,.07-.28,.15-.57,.3-.81,4.11-6.48,8.47-12.76,14.32-17.85,3.39-2.95,5.93-6.53,7.26-10.87,.99-3.2-.16-4.57-3.47-4.26-.43,.04-.84,.21-1.27,.27-4.64,.63-8.24,3.55-12.03,5.83-5.68,3.41-11.11,7.28-16.41,11.28-5.24,3.95-10.19,8.3-15.28,12.47-.44,.36-.98,.62-1.47,.93-.1-.55-.02-.84,.15-1.05,4.4-5.46,8.96-10.79,13.13-16.42,2.17-2.93,3.97-6.25,5.34-9.63,1.93-4.74-1.36-8.56-6.41-8.24-5.95,.38-11.6,2.12-16.98,4.31-6.27,2.54-12.27,5.83-18.14,9.22-4.56,2.64-8.8,5.85-13.06,8.96-1.87,1.37-1.91,2.96-.94,4.55,3.22-2.59,6.38-5.36,9.78-7.81,6.07-4.36,12.47-8.13,19.41-11.02,6.59-2.75,13.29-4.96,20.38-5.85,2.71-.34,4.61,1.76,3.63,4.17-1.83,4.46-3.45,9.16-6.13,13.09-4.58,6.7-10.11,12.7-16.07,18.26-5.07,4.73-10.06,9.53-15.08,14.31-.37,.35-.84,.69-1,1.12-.19,.56-.35,1.37-.07,1.78,.26,.37,1.12,.53,1.67,.45,.59-.09,1.19-.48,1.67-.89,4.53-3.81,9.03-7.63,13.54-11.47,6.04-5.14,12.14-10.22,18.08-15.47,8.29-7.33,17.49-13.3,27.21-18.5,1.84-.98,3.87-1.61,5.86-2.29,.44-.15,1.05,.17,1.58,.28-.19,.49-.29,1.05-.58,1.46-.74,1.06-1.6,2.04-2.37,3.08-2.52,3.4-5,6.83-7.55,10.21-3.92,5.19-7.95,10.3-11.75,15.57-.63,.87-.9,2.99-.37,3.45,.85,.75,2.59,1.03,3.77,.73,2-.51,4.03-1.35,5.74-2.5,7.55-5.07,15.08-10.18,22.43-15.52,8.39-6.1,17.64-10.52,27.09-14.59,1.71-.74,3.63-1.02,5.45-1.51-.49,1.19-1.22,1.85-1.85,2.59-1.63,1.9-2.94,4.18-4.87,5.7-6.72,5.29-13.24,10.79-18.8,17.31-4.17,4.89-8.43,9.77-10.13,16.24-.8,3.05,0,5.31,2.87,6.59,3.77,1.69,7.77,.93,11.23-.41,8.41-3.24,16.57-7.14,24.83-10.76,1.55-.68,3.1-1.34,5.08-2.2-.14,1.27-.21,1.96-.29,2.65-.47,4.22,1.71,8.44,5.24,9.21,2.86,.62,5.91,.95,8.81,.7,7.69-.68,14.78-3.35,21.32-7.47,3.45-2.18,6.91-4.34,10.72-6.72-.8,2.57-1.68,4.7-2.11,6.93-1.32,6.82,2.17,10.58,8.35,8.58,.62-.2,1.27-.28,1.88-.5,9.01-3.23,16.98-8.27,24.52-14.08,3.34-2.57,6.7-5.1,10.57-8.04-2.29,4.37-4.19,8.16-6.24,11.87-1.03,1.85-.7,3.35,.75,4.67,2.09,1.9,4.66,2,7.16,1.32,4.97-1.36,9.7-3.35,13.99-6.28,6.15-4.2,12.32-8.39,18.47-12.59,1.7-1.16,3.4-2.33,5.62-3.86-.63,.99-.88,1.48-1.21,1.91-2.55,3.33-5.43,6.45-7.56,10.03-1.54,2.59-2.51,5.71-2.95,8.71-.52,3.47,.88,5.66,3.23,6.07,1.52,.26,3.16,.05,4.71-.16,4.26-.59,7.83-2.75,11.35-5.07,5.44-3.58,11.01-6.95,16.43-10.56,4.36-2.91,8.57-6.06,12.85-9.1-.18,.69-.59,1.12-1.02,1.55-1.63,1.64-3.45,3.14-4.86,4.96-2.95,3.79-5.1,7.95-4.33,13.02,.65,4.28,3.75,6.71,8.01,5.93,2.6-.48,5.29-1.21,7.59-2.46,6.74-3.64,13.37-7.5,19.93-11.46,5.01-3.02,9.84-6.33,14.76-9.51,1.98-1.28,3.95-2.56,6.41-4.15-.17,1.13-.15,1.7-.34,2.19-2.41,6.23-6.4,11.23-12.27,14.43-3.41,1.86-7.17,3.08-10.74,4.64-.53,.23-1.11,.7-1.32,1.2-.11,.26,.45,1.11,.85,1.24,3.09,.96,6.16,2.24,9.33,2.6,6.77,.77,13.39-.54,19.92-2.38,7.02-1.98,2.47-.72,6.45-1.94,3.57-1.1,7.07-1.78,7.07-1.78,1.38,6.55,4.6,7.46,9.63,7.59,6.46,.17,10.43-4.82,14.4-9.25,2.82-3.14,4.75-7.54,10.1-7.55,.98,4.65,4.02,7.83,8.2,10.16,4.51,2.52,11.8,1.87,13.01-4.45-.61,.24-1.29,.3-1.59,.67Zm-251.37-18.86c-8.5,3.06-17.35,6.25-26.29,9.48,3.2-6.6,18.53-11.97,26.29-9.48Zm212.64,24.41c-1.59,1.25-3.98,1.91-6.05,2.01-4.63,.23-6.06-.65-6.44-4.36-.02-.51-.39-1.04,.06-1.11,6.91-1.48,15.45-4.82,22.17-6.83,.11-.02,.24,.12,1,.51-3.71,3.44-7.02,6.86-10.74,9.78Zm10.98-12.99c-4.13,.71-7.14,2.74-11.51,3.9-3.27,.9-7.85,2.32-11.64,3.25-.55-1.51,2.77-6.86,3.54-7.84,2.6-3.33,5.63-6.2,9.61-7.88,4.15-1.75,10.52,.74,12.44,4.83,.68,1.46-.48,3.4-2.44,3.74Z"/>
</svg>