<?xml version="1.0" standalone="no"?>
<!DOCTYPE svg PUBLIC "-//W3C//DTD SVG 20010904//EN"
 "http://www.w3.org/TR/2001/REC-SVG-20010904/DTD/svg10.dtd">
<svg version="1.0" xmlns="http://www.w3.org/2000/svg"
 width="700.000000pt" height="700.000000pt" viewBox="0 0 700.000000 700.000000"
 preserveAspectRatio="xMidYMid meet">
<metadata>
Created by potrace 1.14, written by Peter Selinger 2001-2017
</metadata>
<g transform="translate(0.000000,700.000000) scale(0.100000,-0.100000)"
fill="#000000" stroke="none">
<path d="M0 5460 c0 -847 2 -1540 5 -1540 3 0 62 41 132 92 463 333 1148 698
1612 859 305 106 532 153 746 153 134 1 157 -2 212 -22 97 -38 171 -103 218
-196 39 -76 40 -82 39 -175 0 -111 -20 -172 -110 -352 -82 -165 -145 -265
-263 -423 -61 -80 -106 -146 -101 -146 5 0 11 4 15 9 7 12 281 220 445 338
164 117 394 271 556 371 71 44 170 105 219 137 184 116 327 178 489 210 324
64 468 -86 367 -385 -68 -200 -176 -365 -351 -534 -201 -194 -319 -318 -403
-424 -96 -120 -257 -345 -252 -350 2 -2 158 102 347 231 632 431 1192 793
1490 961 280 157 440 226 894 386 276 97 292 102 354 98 115 -8 177 -59 200
-163 16 -71 4 -135 -42 -227 -92 -183 -251 -348 -492 -510 -287 -193 -397
-287 -630 -537 -282 -303 -586 -658 -634 -741 -15 -25 -50 -100 -79 -167 -63
-145 -68 -190 -25 -223 24 -20 35 -22 107 -17 145 10 437 87 655 172 163 63
567 236 975 417 l300 133 3 2053 2 2052 -3500 0 -3500 0 0 -1540z"/>
<path d="M2450 4683 c-479 -78 -1024 -281 -1520 -567 -250 -143 -459 -290
-739 -516 l-191 -155 0 -1722 0 -1723 3500 0 3500 0 0 1265 c0 816 -3 1265
-10 1265 -5 0 -252 -108 -547 -239 -799 -356 -1049 -455 -1204 -481 -157 -25
-320 -5 -445 54 -94 45 -147 94 -186 174 -31 62 -33 74 -33 167 1 88 5 113 37
206 61 177 150 340 281 514 287 381 651 747 1133 1138 158 127 274 241 260
254 -7 8 -423 -184 -634 -293 -311 -159 -505 -279 -817 -503 -457 -327 -1124
-781 -1220 -828 -83 -42 -209 -83 -275 -90 -67 -7 -169 17 -222 52 -52 35 -72
77 -72 155 0 129 -4 123 439 705 448 588 658 877 633 870 -94 -28 -608 -329
-878 -513 -259 -177 -411 -297 -745 -587 -195 -170 -1135 -970 -1479 -1259
-147 -123 -195 -149 -277 -149 -127 2 -198 92 -170 217 6 28 19 63 29 77 17
25 267 267 642 619 436 411 636 617 835 865 237 294 317 430 455 772 81 199
89 230 68 251 -11 11 -93 14 -148 5z"/>
</g>
</svg>
